<mxfile host="app.diagrams.net" agent="Mozilla/5.0 (Windows NT 10.0; Win64; x64) AppleWebKit/537.36 (KHTML, like Gecko) Chrome/128.0.0.0 Safari/537.36 OPR/114.0.0.0" version="26.0.8">
  <diagram id="C5RBs43oDa-KdzZeNtuy" name="Page-1">
    <mxGraphModel dx="1068" dy="1744" grid="1" gridSize="10" guides="1" tooltips="1" connect="1" arrows="1" fold="1" page="1" pageScale="1" pageWidth="827" pageHeight="1169" background="none" math="0" shadow="0">
      <root>
        <mxCell id="WIyWlLk6GJQsqaUBKTNV-0" />
        <mxCell id="WIyWlLk6GJQsqaUBKTNV-1" parent="WIyWlLk6GJQsqaUBKTNV-0" />
        <mxCell id="mRSwyks2PZKmi5KrkZY1-5" value="&lt;div&gt;[Struct]&lt;/div&gt;ShrimpStats" style="swimlane;fontStyle=1;align=center;verticalAlign=top;childLayout=stackLayout;horizontal=1;startSize=40;horizontalStack=0;resizeParent=1;resizeParentMax=0;resizeLast=0;collapsible=1;marginBottom=0;whiteSpace=wrap;html=1;sketch=1;curveFitting=1;jiggle=2;" vertex="1" parent="WIyWlLk6GJQsqaUBKTNV-1">
          <mxGeometry x="220" y="230" width="160" height="398" as="geometry" />
        </mxCell>
        <mxCell id="mRSwyks2PZKmi5KrkZY1-6" value="+ bool : gender&lt;div&gt;+ int : age&lt;br&gt;&lt;div&gt;+ int : hunger&lt;/div&gt;&lt;div&gt;+ int : illness&lt;/div&gt;&lt;div&gt;+ int : temperament&lt;/div&gt;&lt;div&gt;+ Trait&amp;nbsp;: geneticSize&lt;/div&gt;&lt;div&gt;+ int : actualSize&lt;/div&gt;&lt;div&gt;+ Trait&amp;nbsp;: primaryColour&lt;/div&gt;&lt;div&gt;+ Trait&amp;nbsp;: secondaryColour&lt;/div&gt;&lt;div&gt;+ Trait : type&lt;/div&gt;&lt;div&gt;+&amp;nbsp;&lt;span style=&quot;background-color: transparent; color: light-dark(rgb(0, 0, 0), rgb(255, 255, 255));&quot;&gt;Trait&lt;/span&gt;&lt;span style=&quot;background-color: transparent; color: light-dark(rgb(0, 0, 0), rgb(255, 255, 255));&quot;&gt;&amp;nbsp;:&amp;nbsp;&lt;/span&gt;&lt;span style=&quot;background-color: transparent; color: light-dark(rgb(0, 0, 0), rgb(255, 255, 255));&quot;&gt;eyes&lt;/span&gt;&lt;/div&gt;&lt;div&gt;&lt;span style=&quot;background-color: transparent; color: light-dark(rgb(0, 0, 0), rgb(255, 255, 255));&quot;&gt;+&amp;nbsp;&lt;/span&gt;&lt;span style=&quot;background-color: transparent; color: light-dark(rgb(0, 0, 0), rgb(255, 255, 255));&quot;&gt;Trait&lt;/span&gt;&lt;span style=&quot;background-color: transparent; color: light-dark(rgb(0, 0, 0), rgb(255, 255, 255));&quot;&gt;&amp;nbsp;:&amp;nbsp;&lt;/span&gt;pattern&lt;/div&gt;&lt;div&gt;&lt;span style=&quot;background-color: transparent; color: light-dark(rgb(0, 0, 0), rgb(255, 255, 255));&quot;&gt;+&amp;nbsp;&lt;/span&gt;&lt;span style=&quot;background-color: transparent; color: light-dark(rgb(0, 0, 0), rgb(255, 255, 255));&quot;&gt;Trait&lt;/span&gt;&lt;span style=&quot;background-color: transparent; color: light-dark(rgb(0, 0, 0), rgb(255, 255, 255));&quot;&gt;&amp;nbsp;:&amp;nbsp;&lt;/span&gt;tail&lt;/div&gt;&lt;div&gt;&lt;span style=&quot;background-color: transparent; color: light-dark(rgb(0, 0, 0), rgb(255, 255, 255));&quot;&gt;+&amp;nbsp;&lt;/span&gt;&lt;span style=&quot;background-color: transparent; color: light-dark(rgb(0, 0, 0), rgb(255, 255, 255));&quot;&gt;Trait&lt;/span&gt;&lt;span style=&quot;background-color: transparent; color: light-dark(rgb(0, 0, 0), rgb(255, 255, 255));&quot;&gt;&amp;nbsp;:&amp;nbsp;&lt;/span&gt;tailFan&lt;/div&gt;&lt;div&gt;&lt;span style=&quot;background-color: transparent; color: light-dark(rgb(0, 0, 0), rgb(255, 255, 255));&quot;&gt;+&amp;nbsp;&lt;/span&gt;&lt;span style=&quot;background-color: transparent; color: light-dark(rgb(0, 0, 0), rgb(255, 255, 255));&quot;&gt;Trait&lt;/span&gt;&lt;span style=&quot;background-color: transparent; color: light-dark(rgb(0, 0, 0), rgb(255, 255, 255));&quot;&gt;&amp;nbsp;:&amp;nbsp;&lt;/span&gt;antenna&lt;/div&gt;&lt;div&gt;&lt;span style=&quot;background-color: transparent; color: light-dark(rgb(0, 0, 0), rgb(255, 255, 255));&quot;&gt;+&amp;nbsp;&lt;/span&gt;&lt;span style=&quot;background-color: transparent; color: light-dark(rgb(0, 0, 0), rgb(255, 255, 255));&quot;&gt;Trait&lt;/span&gt;&lt;span style=&quot;background-color: transparent; color: light-dark(rgb(0, 0, 0), rgb(255, 255, 255));&quot;&gt;&amp;nbsp;:&amp;nbsp;&lt;/span&gt;face&lt;/div&gt;&lt;div&gt;&lt;span style=&quot;background-color: transparent; color: light-dark(rgb(0, 0, 0), rgb(255, 255, 255));&quot;&gt;+&amp;nbsp;&lt;/span&gt;&lt;span style=&quot;background-color: transparent; color: light-dark(rgb(0, 0, 0), rgb(255, 255, 255));&quot;&gt;Trait&lt;/span&gt;&lt;span style=&quot;background-color: transparent; color: light-dark(rgb(0, 0, 0), rgb(255, 255, 255));&quot;&gt;&amp;nbsp;:&amp;nbsp;&lt;/span&gt;frontLegs&lt;/div&gt;&lt;div&gt;+ int : fightHistory&lt;/div&gt;&lt;div&gt;+ int : breedingHistory&lt;/div&gt;&lt;div&gt;+ int : illnessHistory&lt;/div&gt;&lt;div&gt;+ int : moltHistory&lt;/div&gt;&lt;div&gt;+ shrimpStats* : parentA&lt;/div&gt;&lt;div&gt;+ shrimpStats* : parentB&lt;/div&gt;&lt;/div&gt;" style="text;strokeColor=none;fillColor=none;align=left;verticalAlign=top;spacingLeft=4;spacingRight=4;overflow=hidden;rotatable=0;points=[[0,0.5],[1,0.5]];portConstraint=eastwest;whiteSpace=wrap;html=1;sketch=1;curveFitting=1;jiggle=2;" vertex="1" parent="mRSwyks2PZKmi5KrkZY1-5">
          <mxGeometry y="40" width="160" height="350" as="geometry" />
        </mxCell>
        <mxCell id="mRSwyks2PZKmi5KrkZY1-7" value="" style="line;strokeWidth=1;fillColor=none;align=left;verticalAlign=middle;spacingTop=-1;spacingLeft=3;spacingRight=3;rotatable=0;labelPosition=right;points=[];portConstraint=eastwest;strokeColor=inherit;sketch=1;curveFitting=1;jiggle=2;" vertex="1" parent="mRSwyks2PZKmi5KrkZY1-5">
          <mxGeometry y="390" width="160" height="8" as="geometry" />
        </mxCell>
        <mxCell id="mRSwyks2PZKmi5KrkZY1-9" value="&lt;div&gt;[Struct]&lt;/div&gt;Gene" style="swimlane;fontStyle=1;align=center;verticalAlign=top;childLayout=stackLayout;horizontal=1;startSize=40;horizontalStack=0;resizeParent=1;resizeParentMax=0;resizeLast=0;collapsible=1;marginBottom=0;whiteSpace=wrap;html=1;sketch=1;curveFitting=1;jiggle=2;" vertex="1" parent="WIyWlLk6GJQsqaUBKTNV-1">
          <mxGeometry x="440" y="440" width="160" height="168" as="geometry" />
        </mxCell>
        <mxCell id="mRSwyks2PZKmi5KrkZY1-10" value="+ int : id&lt;div&gt;+ int : name&lt;/div&gt;&lt;div&gt;+ int : dominance&lt;/div&gt;&lt;div&gt;&lt;span style=&quot;background-color: transparent; color: light-dark(rgb(0, 0, 0), rgb(255, 255, 255));&quot;&gt;+ int : value&lt;/span&gt;&lt;br&gt;&lt;/div&gt;" style="text;strokeColor=none;fillColor=none;align=left;verticalAlign=top;spacingLeft=4;spacingRight=4;overflow=hidden;rotatable=0;points=[[0,0.5],[1,0.5]];portConstraint=eastwest;whiteSpace=wrap;html=1;sketch=1;curveFitting=1;jiggle=2;" vertex="1" parent="mRSwyks2PZKmi5KrkZY1-9">
          <mxGeometry y="40" width="160" height="120" as="geometry" />
        </mxCell>
        <mxCell id="mRSwyks2PZKmi5KrkZY1-11" value="" style="line;strokeWidth=1;fillColor=none;align=left;verticalAlign=middle;spacingTop=-1;spacingLeft=3;spacingRight=3;rotatable=0;labelPosition=right;points=[];portConstraint=eastwest;strokeColor=inherit;sketch=1;curveFitting=1;jiggle=2;" vertex="1" parent="mRSwyks2PZKmi5KrkZY1-9">
          <mxGeometry y="160" width="160" height="8" as="geometry" />
        </mxCell>
        <mxCell id="mRSwyks2PZKmi5KrkZY1-13" value="&lt;div&gt;&lt;span style=&quot;background-color: transparent; color: light-dark(rgb(0, 0, 0), rgb(255, 255, 255));&quot;&gt;[Struct]&lt;/span&gt;&lt;/div&gt;&lt;div&gt;&lt;span style=&quot;background-color: transparent; color: light-dark(rgb(0, 0, 0), rgb(255, 255, 255));&quot;&gt;Trait&lt;/span&gt;&lt;br&gt;&lt;/div&gt;" style="swimlane;fontStyle=1;align=center;verticalAlign=top;childLayout=stackLayout;horizontal=1;startSize=40;horizontalStack=0;resizeParent=1;resizeParentMax=0;resizeLast=0;collapsible=1;marginBottom=0;whiteSpace=wrap;html=1;sketch=1;curveFitting=1;jiggle=2;" vertex="1" parent="WIyWlLk6GJQsqaUBKTNV-1">
          <mxGeometry x="460" y="230" width="160" height="88" as="geometry" />
        </mxCell>
        <mxCell id="mRSwyks2PZKmi5KrkZY1-14" value="+ Gene : activeGene&lt;div&gt;+ Gene : inactiveGene&lt;/div&gt;" style="text;strokeColor=none;fillColor=none;align=left;verticalAlign=top;spacingLeft=4;spacingRight=4;overflow=hidden;rotatable=0;points=[[0,0.5],[1,0.5]];portConstraint=eastwest;whiteSpace=wrap;html=1;sketch=1;curveFitting=1;jiggle=2;" vertex="1" parent="mRSwyks2PZKmi5KrkZY1-13">
          <mxGeometry y="40" width="160" height="40" as="geometry" />
        </mxCell>
        <mxCell id="mRSwyks2PZKmi5KrkZY1-15" value="" style="line;strokeWidth=1;fillColor=none;align=left;verticalAlign=middle;spacingTop=-1;spacingLeft=3;spacingRight=3;rotatable=0;labelPosition=right;points=[];portConstraint=eastwest;strokeColor=inherit;sketch=1;curveFitting=1;jiggle=2;" vertex="1" parent="mRSwyks2PZKmi5KrkZY1-13">
          <mxGeometry y="80" width="160" height="8" as="geometry" />
        </mxCell>
        <mxCell id="mRSwyks2PZKmi5KrkZY1-17" value="&lt;div&gt;ShrimpManager&lt;/div&gt;" style="swimlane;fontStyle=1;align=center;verticalAlign=top;childLayout=stackLayout;horizontal=1;startSize=30;horizontalStack=0;resizeParent=1;resizeParentMax=0;resizeLast=0;collapsible=1;marginBottom=0;whiteSpace=wrap;html=1;sketch=1;curveFitting=1;jiggle=2;" vertex="1" parent="WIyWlLk6GJQsqaUBKTNV-1">
          <mxGeometry x="670" y="230" width="260" height="350" as="geometry" />
        </mxCell>
        <mxCell id="mRSwyks2PZKmi5KrkZY1-18" value="+ Gene&amp;lt;&amp;gt; : loadedGenes&lt;div&gt;&lt;br&gt;&lt;/div&gt;" style="text;strokeColor=none;fillColor=none;align=left;verticalAlign=top;spacingLeft=4;spacingRight=4;overflow=hidden;rotatable=0;points=[[0,0.5],[1,0.5]];portConstraint=eastwest;whiteSpace=wrap;html=1;sketch=1;curveFitting=1;jiggle=2;" vertex="1" parent="mRSwyks2PZKmi5KrkZY1-17">
          <mxGeometry y="30" width="260" height="100" as="geometry" />
        </mxCell>
        <mxCell id="mRSwyks2PZKmi5KrkZY1-19" value="" style="line;strokeWidth=1;fillColor=none;align=left;verticalAlign=middle;spacingTop=-1;spacingLeft=3;spacingRight=3;rotatable=0;labelPosition=right;points=[];portConstraint=eastwest;strokeColor=inherit;sketch=1;curveFitting=1;jiggle=2;" vertex="1" parent="mRSwyks2PZKmi5KrkZY1-17">
          <mxGeometry y="130" width="260" height="8" as="geometry" />
        </mxCell>
        <mxCell id="mRSwyks2PZKmi5KrkZY1-20" value="+ LoadGenes()&lt;div&gt;+ CompareTraits()&lt;/div&gt;&lt;div&gt;+ BreedShrimp(ShrimpStats, ShrimpStats)&lt;/div&gt;&lt;div&gt;- FullyRandomGene(Gene, Gene) : Gene&lt;br&gt;&lt;/div&gt;&lt;div&gt;- WeightedRandomGene(&lt;span style=&quot;background-color: transparent; color: light-dark(rgb(0, 0, 0), rgb(255, 255, 255));&quot;&gt;Gene, Gene&lt;/span&gt;&lt;span style=&quot;background-color: transparent; color: light-dark(rgb(0, 0, 0), rgb(255, 255, 255));&quot;&gt;) : Gene&lt;/span&gt;&lt;/div&gt;&lt;div&gt;- PunnetSquareGene(&lt;span style=&quot;background-color: transparent; color: light-dark(rgb(0, 0, 0), rgb(255, 255, 255));&quot;&gt;Gene, Gene&lt;/span&gt;&lt;span style=&quot;background-color: transparent; color: light-dark(rgb(0, 0, 0), rgb(255, 255, 255));&quot;&gt;) : Gene&lt;/span&gt;&lt;/div&gt;&lt;div&gt;- FlatAverageGene(&lt;span style=&quot;background-color: transparent; color: light-dark(rgb(0, 0, 0), rgb(255, 255, 255));&quot;&gt;Gene, Gene&lt;/span&gt;&lt;span style=&quot;background-color: transparent; color: light-dark(rgb(0, 0, 0), rgb(255, 255, 255));&quot;&gt;) : Gene&lt;/span&gt;&lt;/div&gt;" style="text;strokeColor=none;fillColor=none;align=left;verticalAlign=top;spacingLeft=4;spacingRight=4;overflow=hidden;rotatable=0;points=[[0,0.5],[1,0.5]];portConstraint=eastwest;whiteSpace=wrap;html=1;sketch=1;curveFitting=1;jiggle=2;" vertex="1" parent="mRSwyks2PZKmi5KrkZY1-17">
          <mxGeometry y="138" width="260" height="212" as="geometry" />
        </mxCell>
        <mxCell id="mRSwyks2PZKmi5KrkZY1-30" value="&lt;div&gt;Shrimp&lt;/div&gt;" style="swimlane;fontStyle=1;align=center;verticalAlign=top;childLayout=stackLayout;horizontal=1;startSize=30;horizontalStack=0;resizeParent=1;resizeParentMax=0;resizeLast=0;collapsible=1;marginBottom=0;whiteSpace=wrap;html=1;sketch=1;curveFitting=1;jiggle=2;" vertex="1" parent="WIyWlLk6GJQsqaUBKTNV-1">
          <mxGeometry x="30" y="230" width="160" height="400" as="geometry" />
        </mxCell>
        <mxCell id="mRSwyks2PZKmi5KrkZY1-31" value="+ ShrimpStats : stats&lt;div&gt;&lt;div&gt;+ Tank : tank&lt;/div&gt;&lt;/div&gt;&lt;div&gt;+ bool : focused&lt;/div&gt;&lt;div&gt;+ int : statsFrozen&lt;/div&gt;&lt;div&gt;+ int : moltCycle&lt;/div&gt;" style="text;strokeColor=none;fillColor=none;align=left;verticalAlign=top;spacingLeft=4;spacingRight=4;overflow=hidden;rotatable=0;points=[[0,0.5],[1,0.5]];portConstraint=eastwest;whiteSpace=wrap;html=1;sketch=1;curveFitting=1;jiggle=2;" vertex="1" parent="mRSwyks2PZKmi5KrkZY1-30">
          <mxGeometry y="30" width="160" height="210" as="geometry" />
        </mxCell>
        <mxCell id="mRSwyks2PZKmi5KrkZY1-32" value="" style="line;strokeWidth=1;fillColor=none;align=left;verticalAlign=middle;spacingTop=-1;spacingLeft=3;spacingRight=3;rotatable=0;labelPosition=right;points=[];portConstraint=eastwest;strokeColor=inherit;sketch=1;curveFitting=1;jiggle=2;" vertex="1" parent="mRSwyks2PZKmi5KrkZY1-30">
          <mxGeometry y="240" width="160" height="8" as="geometry" />
        </mxCell>
        <mxCell id="mRSwyks2PZKmi5KrkZY1-33" value="+ UpdateShrimp()&lt;div&gt;+&amp;nbsp;&lt;/div&gt;" style="text;strokeColor=none;fillColor=none;align=left;verticalAlign=top;spacingLeft=4;spacingRight=4;overflow=hidden;rotatable=0;points=[[0,0.5],[1,0.5]];portConstraint=eastwest;whiteSpace=wrap;html=1;sketch=1;curveFitting=1;jiggle=2;" vertex="1" parent="mRSwyks2PZKmi5KrkZY1-30">
          <mxGeometry y="248" width="160" height="152" as="geometry" />
        </mxCell>
        <mxCell id="mRSwyks2PZKmi5KrkZY1-34" value="&lt;div&gt;Tank&lt;/div&gt;" style="swimlane;fontStyle=1;align=center;verticalAlign=top;childLayout=stackLayout;horizontal=1;startSize=30;horizontalStack=0;resizeParent=1;resizeParentMax=0;resizeLast=0;collapsible=1;marginBottom=0;whiteSpace=wrap;html=1;sketch=1;curveFitting=1;jiggle=2;" vertex="1" parent="WIyWlLk6GJQsqaUBKTNV-1">
          <mxGeometry x="990" y="230" width="170" height="400" as="geometry" />
        </mxCell>
        <mxCell id="mRSwyks2PZKmi5KrkZY1-35" value="+ Shrimp&amp;lt;&amp;gt; : shrimpInTank&lt;div&gt;+ bool : tankLoaded&lt;/div&gt;&lt;div&gt;+ FocusedShrimp&lt;/div&gt;&lt;div&gt;+ bool : saleTank&lt;/div&gt;&lt;div&gt;+ GameObject : Decorations&lt;/div&gt;&lt;div&gt;+ Illness&amp;lt;&amp;gt; : illnesses&lt;/div&gt;&lt;div&gt;+ int : waterQuality&lt;/div&gt;&lt;div&gt;+ int : waterAcidity&lt;/div&gt;&lt;div&gt;+ int : waterMineralContent&lt;/div&gt;&lt;div&gt;+ int : waterTemperature&lt;/div&gt;&lt;div&gt;+ int :saleTankPrice&lt;/div&gt;" style="text;strokeColor=none;fillColor=none;align=left;verticalAlign=top;spacingLeft=4;spacingRight=4;overflow=hidden;rotatable=0;points=[[0,0.5],[1,0.5]];portConstraint=eastwest;whiteSpace=wrap;html=1;sketch=1;curveFitting=1;jiggle=2;" vertex="1" parent="mRSwyks2PZKmi5KrkZY1-34">
          <mxGeometry y="30" width="170" height="270" as="geometry" />
        </mxCell>
        <mxCell id="mRSwyks2PZKmi5KrkZY1-36" value="" style="line;strokeWidth=1;fillColor=none;align=left;verticalAlign=middle;spacingTop=-1;spacingLeft=3;spacingRight=3;rotatable=0;labelPosition=right;points=[];portConstraint=eastwest;strokeColor=inherit;sketch=1;curveFitting=1;jiggle=2;" vertex="1" parent="mRSwyks2PZKmi5KrkZY1-34">
          <mxGeometry y="300" width="170" height="8" as="geometry" />
        </mxCell>
        <mxCell id="mRSwyks2PZKmi5KrkZY1-37" value="+ UpdateShrimp()&lt;div&gt;+ FocusTank()&lt;/div&gt;&lt;div&gt;+ FocusShrimp()&lt;/div&gt;" style="text;strokeColor=none;fillColor=none;align=left;verticalAlign=top;spacingLeft=4;spacingRight=4;overflow=hidden;rotatable=0;points=[[0,0.5],[1,0.5]];portConstraint=eastwest;whiteSpace=wrap;html=1;sketch=1;curveFitting=1;jiggle=2;" vertex="1" parent="mRSwyks2PZKmi5KrkZY1-34">
          <mxGeometry y="308" width="170" height="92" as="geometry" />
        </mxCell>
        <mxCell id="mRSwyks2PZKmi5KrkZY1-38" value="&lt;div&gt;NotificationManager&lt;/div&gt;" style="swimlane;fontStyle=1;align=center;verticalAlign=top;childLayout=stackLayout;horizontal=1;startSize=30;horizontalStack=0;resizeParent=1;resizeParentMax=0;resizeLast=0;collapsible=1;marginBottom=0;whiteSpace=wrap;html=1;sketch=1;curveFitting=1;jiggle=2;" vertex="1" parent="WIyWlLk6GJQsqaUBKTNV-1">
          <mxGeometry x="30" y="870" width="160" height="444" as="geometry" />
        </mxCell>
        <mxCell id="mRSwyks2PZKmi5KrkZY1-39" value="+ s&lt;div&gt;&lt;br&gt;&lt;/div&gt;" style="text;strokeColor=none;fillColor=none;align=left;verticalAlign=top;spacingLeft=4;spacingRight=4;overflow=hidden;rotatable=0;points=[[0,0.5],[1,0.5]];portConstraint=eastwest;whiteSpace=wrap;html=1;sketch=1;curveFitting=1;jiggle=2;" vertex="1" parent="mRSwyks2PZKmi5KrkZY1-38">
          <mxGeometry y="30" width="160" height="380" as="geometry" />
        </mxCell>
        <mxCell id="mRSwyks2PZKmi5KrkZY1-40" value="" style="line;strokeWidth=1;fillColor=none;align=left;verticalAlign=middle;spacingTop=-1;spacingLeft=3;spacingRight=3;rotatable=0;labelPosition=right;points=[];portConstraint=eastwest;strokeColor=inherit;sketch=1;curveFitting=1;jiggle=2;" vertex="1" parent="mRSwyks2PZKmi5KrkZY1-38">
          <mxGeometry y="410" width="160" height="8" as="geometry" />
        </mxCell>
        <mxCell id="mRSwyks2PZKmi5KrkZY1-41" value="+ LoadGenes()" style="text;strokeColor=none;fillColor=none;align=left;verticalAlign=top;spacingLeft=4;spacingRight=4;overflow=hidden;rotatable=0;points=[[0,0.5],[1,0.5]];portConstraint=eastwest;whiteSpace=wrap;html=1;sketch=1;curveFitting=1;jiggle=2;" vertex="1" parent="mRSwyks2PZKmi5KrkZY1-38">
          <mxGeometry y="418" width="160" height="26" as="geometry" />
        </mxCell>
        <mxCell id="mRSwyks2PZKmi5KrkZY1-42" value="&lt;div&gt;&lt;span style=&quot;background-color: transparent; color: light-dark(rgb(0, 0, 0), rgb(255, 255, 255));&quot;&gt;[Struct]&lt;/span&gt;&lt;/div&gt;&lt;div&gt;&lt;span style=&quot;background-color: transparent; color: light-dark(rgb(0, 0, 0), rgb(255, 255, 255));&quot;&gt;Customer&lt;/span&gt;&lt;br&gt;&lt;/div&gt;" style="swimlane;fontStyle=1;align=center;verticalAlign=top;childLayout=stackLayout;horizontal=1;startSize=40;horizontalStack=0;resizeParent=1;resizeParentMax=0;resizeLast=0;collapsible=1;marginBottom=0;whiteSpace=wrap;html=1;sketch=1;curveFitting=1;jiggle=2;" vertex="1" parent="WIyWlLk6GJQsqaUBKTNV-1">
          <mxGeometry x="220" y="-10" width="160" height="164" as="geometry" />
        </mxCell>
        <mxCell id="mRSwyks2PZKmi5KrkZY1-43" value="+ int : money&lt;div&gt;&lt;br&gt;&lt;/div&gt;" style="text;strokeColor=none;fillColor=none;align=left;verticalAlign=top;spacingLeft=4;spacingRight=4;overflow=hidden;rotatable=0;points=[[0,0.5],[1,0.5]];portConstraint=eastwest;whiteSpace=wrap;html=1;sketch=1;curveFitting=1;jiggle=2;" vertex="1" parent="mRSwyks2PZKmi5KrkZY1-42">
          <mxGeometry y="40" width="160" height="90" as="geometry" />
        </mxCell>
        <mxCell id="mRSwyks2PZKmi5KrkZY1-44" value="" style="line;strokeWidth=1;fillColor=none;align=left;verticalAlign=middle;spacingTop=-1;spacingLeft=3;spacingRight=3;rotatable=0;labelPosition=right;points=[];portConstraint=eastwest;strokeColor=inherit;sketch=1;curveFitting=1;jiggle=2;" vertex="1" parent="mRSwyks2PZKmi5KrkZY1-42">
          <mxGeometry y="130" width="160" height="8" as="geometry" />
        </mxCell>
        <mxCell id="mRSwyks2PZKmi5KrkZY1-45" value="+" style="text;strokeColor=none;fillColor=none;align=left;verticalAlign=top;spacingLeft=4;spacingRight=4;overflow=hidden;rotatable=0;points=[[0,0.5],[1,0.5]];portConstraint=eastwest;whiteSpace=wrap;html=1;sketch=1;curveFitting=1;jiggle=2;" vertex="1" parent="mRSwyks2PZKmi5KrkZY1-42">
          <mxGeometry y="138" width="160" height="26" as="geometry" />
        </mxCell>
        <mxCell id="mRSwyks2PZKmi5KrkZY1-46" value="&lt;div&gt;&lt;span style=&quot;background-color: transparent; color: light-dark(rgb(0, 0, 0), rgb(255, 255, 255));&quot;&gt;[Struct]&lt;/span&gt;&lt;/div&gt;&lt;div&gt;&lt;span style=&quot;background-color: transparent; color: light-dark(rgb(0, 0, 0), rgb(255, 255, 255));&quot;&gt;UniqueCustomer&lt;/span&gt;&lt;br&gt;&lt;/div&gt;" style="swimlane;fontStyle=1;align=center;verticalAlign=top;childLayout=stackLayout;horizontal=1;startSize=40;horizontalStack=0;resizeParent=1;resizeParentMax=0;resizeLast=0;collapsible=1;marginBottom=0;whiteSpace=wrap;html=1;sketch=1;curveFitting=1;jiggle=2;" vertex="1" parent="WIyWlLk6GJQsqaUBKTNV-1">
          <mxGeometry x="30" y="-10" width="160" height="164" as="geometry" />
        </mxCell>
        <mxCell id="mRSwyks2PZKmi5KrkZY1-47" value="+ Customer : customer&lt;div&gt;+ bool : buyer&lt;/div&gt;&lt;div&gt;+ bool : seller&lt;/div&gt;&lt;div&gt;+ ShrimpStats&amp;lt;&amp;gt; : requests&lt;/div&gt;" style="text;strokeColor=none;fillColor=none;align=left;verticalAlign=top;spacingLeft=4;spacingRight=4;overflow=hidden;rotatable=0;points=[[0,0.5],[1,0.5]];portConstraint=eastwest;whiteSpace=wrap;html=1;sketch=1;curveFitting=1;jiggle=2;" vertex="1" parent="mRSwyks2PZKmi5KrkZY1-46">
          <mxGeometry y="40" width="160" height="90" as="geometry" />
        </mxCell>
        <mxCell id="mRSwyks2PZKmi5KrkZY1-48" value="" style="line;strokeWidth=1;fillColor=none;align=left;verticalAlign=middle;spacingTop=-1;spacingLeft=3;spacingRight=3;rotatable=0;labelPosition=right;points=[];portConstraint=eastwest;strokeColor=inherit;sketch=1;curveFitting=1;jiggle=2;" vertex="1" parent="mRSwyks2PZKmi5KrkZY1-46">
          <mxGeometry y="130" width="160" height="8" as="geometry" />
        </mxCell>
        <mxCell id="mRSwyks2PZKmi5KrkZY1-49" value="+" style="text;strokeColor=none;fillColor=none;align=left;verticalAlign=top;spacingLeft=4;spacingRight=4;overflow=hidden;rotatable=0;points=[[0,0.5],[1,0.5]];portConstraint=eastwest;whiteSpace=wrap;html=1;sketch=1;curveFitting=1;jiggle=2;" vertex="1" parent="mRSwyks2PZKmi5KrkZY1-46">
          <mxGeometry y="138" width="160" height="26" as="geometry" />
        </mxCell>
      </root>
    </mxGraphModel>
  </diagram>
</mxfile>
